<svg width="22" height="23" fill="none" xmlns="http://www.w3.org/2000/svg"><g clip-path="url(#a)"><path fill-rule="evenodd" clip-rule="evenodd" d="M11.303 6.398a.58.58 0 0 0 0-1.157.694.694 0 1 1 .69-.695.575.575 0 1 0 1.153 0 1.843 1.843 0 1 0-1.843 1.852Zm7.934-2.51h-.968a.58.58 0 0 0 0 1.158h.968a1.86 1.86 0 0 1 1.859 1.859v4.162H15.96a.578.578 0 0 0-.576.58v5.073H8.574a2.2 2.2 0 0 0-1.553-1.56v-3.418a.722.722 0 0 0-.602-.679H1.51V6.906a1.861 1.861 0 0 1 1.86-1.859h.948a.579.579 0 0 0 0-1.157H3.37A3.017 3.017 0 0 0 .36 6.908v12.02a3.017 3.017 0 0 0 3.01 3.018h15.868a3.017 3.017 0 0 0 3.01-3.018V6.906a3.018 3.018 0 0 0-3.011-3.018ZM1.51 12.222h4.36v2.95a2.203 2.203 0 0 0-1.52 1.55H1.51v-4.5Zm4.36 8.566H3.368a1.862 1.862 0 0 1-1.86-1.858v-1.05h2.847a2.2 2.2 0 0 0 1.514 1.528v1.382l.001-.002Zm9.515 0H7.021v-1.742a.577.577 0 0 0-.56-.711 1.046 1.046 0 1 1 1.037-1.046.577.577 0 0 0 .576.58.553.553 0 0 1 .42.013h6.889v2.91l.002-.004Zm5.71-1.858a1.861 1.861 0 0 1-1.859 1.858h-2.7V17.88h4.558v1.051Zm0-2.208h-4.558v-4.5h4.558v4.5Zm-2.918-2.166a.695.695 0 1 0 .007-1.39.695.695 0 0 0-.007 1.39ZM6.947 6.707l3.485 7.422a.955.955 0 0 0 1.73 0l3.486-7.42a4.763 4.763 0 1 0-8.744-.107.744.744 0 0 0 .043.105Zm4.355-5.597a3.64 3.64 0 0 1 3.303 5.109l-.01.026-3.295 7.013-3.297-7.014v-.006a.564.564 0 0 0-.022-.06 3.64 3.64 0 0 1 3.322-5.068H11.3Z" fill="#FF5F1E"/></g><defs><clipPath id="a"><path fill="#fff" transform="translate(0 .5)" d="M0 0h22v22H0z"/></clipPath></defs></svg>