<svg width="93" height="62" fill="none" xmlns="http://www.w3.org/2000/svg"><g clip-path="url(#a)" stroke="#fff" stroke-miterlimit="10"><path d="M1.119 36.939h90.907l-10.44-17.09L61.99 22.6 29.138.741 1.118 36.94Z" stroke-width="1.44"/><path d="M3.858 36.572 28.811 5.197l32.212 31.375H3.858Z" stroke-width="1.44"/><path d="m70.17 36.572 11.05-16.074 10.235 16.074H70.171Z" stroke-width="1.42"/><path d="m75.535 36.205 6.005-8.094 5.364 8.094H75.535ZM58.725 20.132v-6.68h5.076v8.545M35.91 19.322H23.576v12.832h12.336V19.321ZM29.74 19.49v12.305" stroke-width="1.44"/><path d="M8.036 45.46H3.828v-1.528h10.25v1.529h-4.23v12.381H8.035V45.461ZM14.634 50.971c0-1.177-.023-2.186-.084-3.118h1.583l.06 1.956h.084c.45-1.337 1.538-2.185 2.755-2.185.206 0 .35.023.51.06v1.713a2.9 2.9 0 0 0-.616-.061c-1.271 0-2.177.97-2.428 2.33-.038.245-.084.536-.084.85v5.319h-1.788v-6.871l.008.007ZM23.446 45.048c.023.619-.434 1.116-1.15 1.116-.638 0-1.087-.497-1.087-1.116 0-.62.471-1.131 1.126-1.131.654 0 1.111.496 1.111 1.13Zm-2.017 12.794v-9.981h1.812v9.981h-1.812ZM35.241 52.767c0 3.692-2.55 5.304-4.946 5.304-2.694 0-4.764-1.979-4.764-5.136 0-3.34 2.177-5.304 4.931-5.304 2.755 0 4.787 2.087 4.787 5.136h-.008Zm-7.891.1c0 2.186 1.255 3.836 3.02 3.836 1.766 0 3.022-1.628 3.022-3.875 0-1.689-.845-3.836-2.975-3.836-2.131 0-3.06 1.98-3.06 3.875h-.007ZM48.117 57.223c-.799.29-2.382.764-4.254.764-2.093 0-3.82-.535-5.175-1.834-1.194-1.154-1.932-3.011-1.932-5.182.022-4.15 2.853-7.177 7.495-7.177 1.606 0 2.854.352 3.455.642l-.434 1.468c-.738-.329-1.666-.596-3.059-.596-3.37 0-5.57 2.102-5.57 5.587s2.115 5.61 5.342 5.61c1.172 0 1.97-.169 2.382-.375v-4.15H43.55v-1.444h4.558v6.687h.008ZM50.796 50.971c0-1.177-.023-2.186-.084-3.118h1.583l.06 1.956h.085c.449-1.337 1.537-2.185 2.754-2.185.206 0 .35.023.51.06v1.713a2.9 2.9 0 0 0-.616-.061c-1.271 0-2.177.97-2.428 2.33-.038.245-.084.536-.084.85v5.319h-1.788v-6.871l.008.007ZM66.305 52.767c0 3.692-2.55 5.304-4.947 5.304-2.694 0-4.764-1.979-4.764-5.136 0-3.34 2.177-5.304 4.932-5.304 2.754 0 4.786 2.087 4.786 5.136h-.007Zm-7.892.1c0 2.186 1.256 3.836 3.021 3.836 1.766 0 3.022-1.628 3.022-3.875 0-1.689-.845-3.836-2.976-3.836-2.13 0-3.06 1.98-3.06 3.875h-.007ZM76.905 55.114c0 1.031.023 1.941.084 2.72h-1.606l-.099-1.627h-.038c-.472.802-1.522 1.857-3.287 1.857-1.56 0-3.432-.864-3.432-4.372v-5.84h1.81v5.527c0 1.895.58 3.18 2.223 3.18 1.21 0 2.055-.85 2.382-1.652.099-.267.167-.596.167-.924v-6.13h1.811v7.26h-.015ZM79.911 51.116a64.96 64.96 0 0 0-.084-3.255h1.621l.084 1.712h.038c.738-1.216 1.91-1.942 3.531-1.942 2.405 0 4.208 2.04 4.208 5.075 0 3.592-2.176 5.365-4.52 5.365-1.317 0-2.466-.58-3.06-1.566h-.037v5.426h-1.789V51.124l.008-.008Zm1.788 2.66c0 .268.038.512.084.741.327 1.262 1.415 2.125 2.71 2.125 1.91 0 3.02-1.567 3.02-3.86 0-2.002-1.05-3.714-2.96-3.714-1.233 0-2.382.887-2.732 2.247-.06.23-.122.497-.122.742V53.776Z" fill="#fff" stroke-width=".21"/></g><defs><clipPath id="a"><path fill="#fff" d="M0 0h93v62H0z"/></clipPath></defs></svg>