<svg width="23" height="22" fill="none" xmlns="http://www.w3.org/2000/svg"><path fill-rule="evenodd" clip-rule="evenodd" d="M13.242 4.383a5.457 5.457 0 0 1 3.48 2.372 5.519 5.519 0 0 1 .8 4.153.582.582 0 0 0 .565.695.577.577 0 0 0 .563-.465 6.677 6.677 0 0 0-.968-5.023 6.6 6.6 0 0 0-4.21-2.868.58.58 0 0 0-.23 1.136Zm-.903 2.752a2.993 2.993 0 0 1 2.315 3.529.578.578 0 0 0 .564.695.577.577 0 0 0 .563-.465 4.152 4.152 0 0 0-3.212-4.895.58.58 0 0 0-.23 1.136Zm4.288 6.276a1.486 1.486 0 0 0-1.14-.37 1.744 1.744 0 0 0-1.137.714c-.173.219-.468.587-.57.708-.693.818-1.175.545-1.5.339a18.384 18.384 0 0 1-2.518-2.789l-.011-.015a18.447 18.447 0 0 1-2.07-3.145c-.12-.365-.268-.9.691-1.377l.074-.031a4.453 4.453 0 0 0 1.368-.83 1.537 1.537 0 0 0 .325-1.812A34.644 34.644 0 0 0 7.72.793 1.683 1.683 0 0 0 5.345.292l.635.965a.54.54 0 0 1 .809.215 33.715 33.715 0 0 1 2.317 3.836.369.369 0 0 1-.104.486c-.3.247-.638.443-1.002.58-.045.02-.09.039-.134.06-.861.428-1.781 1.264-1.265 2.814l.024.06A19.36 19.36 0 0 0 8.83 12.69l.014.018.022.029a19.246 19.246 0 0 0 2.715 2.982.507.507 0 0 0 .053.038c1.37.878 2.399.188 3.02-.545.128-.15.463-.57.596-.738l.016-.02a.639.639 0 0 1 .359-.267.394.394 0 0 1 .276.119c1.07.86 2.084 1.79 3.034 2.78.015.02.03.038.048.056.55.55.38.88.323.988a.58.58 0 0 0 .509.848.575.575 0 0 0 .51-.31c.185-.356.503-1.29-.506-2.323-.61-.761-2.668-2.504-3.193-2.935Zm-7.65-.58a.572.572 0 0 0 0-.002v.002ZM14.371.52a.579.579 0 0 0-.23 1.133 8.055 8.055 0 0 1 6.23 9.497.579.579 0 0 0 .564.695.576.576 0 0 0 .563-.465A9.214 9.214 0 0 0 14.371.518V.52Zm4.524 19.102a.58.58 0 0 0-.019-.058c-.006-.017-.01-.033-.017-.049-.007-.016-.017-.031-.026-.047a.529.529 0 0 0-.032-.053l-.004-.007c-.01-.014-.024-.026-.036-.038-.012-.013-.02-.026-.031-.037l-2.544-2.405a.573.573 0 0 0-.813.026.58.58 0 0 0 .025.818l2.032 1.921c-1.094.743-2.04 1.148-2.704 1.148a1.882 1.882 0 0 1-.871-.209 23.79 23.79 0 0 1-6.913-6.02l-.19-.245A23.947 23.947 0 0 1 2.665 6.19c0-.007-.005-.017-.007-.024a1.529 1.529 0 0 1-.01-.867 7.302 7.302 0 0 1 1.356-2.192l1.532 2.496a.574.574 0 0 0 1.05-.172.58.58 0 0 0-.071-.436L4.617 1.903a.577.577 0 0 0-.111-.128c-.007-.008-.013-.018-.021-.026a.572.572 0 0 0-.813.009 9.036 9.036 0 0 0-2.106 3.147 2.678 2.678 0 0 0-.012 1.587 25.222 25.222 0 0 0 4.29 8.585l.19.246c1.936 2.505 4.766 4.973 7.216 6.294.45.254.959.385 1.476.381 1.05 0 2.38-.599 3.953-1.781a.492.492 0 0 0 .05-.046l.025-.022.003-.004a.533.533 0 0 0 .05-.065l.02-.028a.556.556 0 0 0 .032-.067l.017-.035a.67.67 0 0 0 .017-.067c.003-.014.008-.028.01-.041a.536.536 0 0 0 .004-.07c0-.014.003-.027 0-.04a.513.513 0 0 0-.009-.068c.001-.014 0-.029-.003-.042v.002Z" fill="#fff"/></svg>