<svg width="16" height="15" fill="none" xmlns="http://www.w3.org/2000/svg"><g clip-path="url(#a)"><path d="M14.238-.183C13.986-.103.346 5.346.258 5.404a.597.597 0 0 0-.232.618c.038.144.164.311.282.373.05.026.896.357 1.886.735.99.378 1.805.691 1.81.697.007.006.241.885.522 1.951.282 1.067.528 1.966.545 2.004.144.281.513.408.788.27.041-.02.534-.37 1.093-.774l1.023-.732.266.184c.935.645 3.486 2.365 3.569 2.409a.654.654 0 0 0 .28.055c.153 0 .2-.011.308-.088a.62.62 0 0 0 .19-.22c.089-.175 2.424-12.41 2.403-12.573-.047-.352-.422-.598-.753-.496Zm-2.636 2.447-2.945 2.83C5.452 8.167 5.464 8.158 5.435 8.287c-.012.05-.03.082-.041.067a6.993 6.993 0 0 1-.18-.62c-.166-.63-.234-.777-.403-.865a53.322 53.322 0 0 0-1.28-.5 86.306 86.306 0 0 1-1.24-.481c-.03-.018.812-.364 2.575-1.067C6.308 4.247 8.44 3.397 9.61 2.93c1.17-.466 2.136-.85 2.154-.85.014-.003-.056.082-.161.185Zm1.84.008-.9 4.72c-.48 2.517-.879 4.585-.888 4.591-.02.023-4.71-3.158-4.702-3.185.009-.029 6.475-6.26 6.498-6.26.009-.003.006.058-.009.134ZM6.281 9.4c.345.235.63.431.63.44 0 .026-.938.68-.953.665a14.577 14.577 0 0 1-.22-.788c-.111-.422-.21-.797-.222-.83-.015-.052-.01-.05.058.015.041.041.358.264.706.498Z" fill="#fff"/></g><defs><clipPath id="a"><path fill="#fff" transform="translate(.37)" d="M0 0h15v15H0z"/></clipPath></defs></svg>