<svg width="15" height="15" fill="none" xmlns="http://www.w3.org/2000/svg"><g clip-path="url(#a)"><path fill-rule="evenodd" clip-rule="evenodd" d="M7.233 2.803a4.554 4.554 0 0 0-1.879.205c-.257.135-.455.442-.334.457.263.03.503.162.67.368.156.347.232.726.222 1.106 0 0 .129 2.114-.314 2.38-.304.18-.72-.188-1.62-1.868a16.472 16.472 0 0 1-.806-1.82.695.695 0 0 0-.188-.269.917.917 0 0 0-.347-.154l-2.149.014a.702.702 0 0 0-.436.164.53.53 0 0 0-.009.413s1.68 4.267 3.585 6.418a4.936 4.936 0 0 0 3.725 1.842h.9a.73.73 0 0 0 .407-.187.751.751 0 0 0 .125-.43s-.018-1.306.54-1.503c.558-.196 1.256 1.266 2.006 1.824a1.346 1.346 0 0 0 1.003.33l2.007-.033a.607.607 0 0 0 .548-.966 7.117 7.117 0 0 0-1.487-1.872c-1.261-1.265-1.093-1.06.424-3.252.921-1.336 1.29-2.151 1.175-2.504a.831.831 0 0 0-.79-.243l-2.26.014a.483.483 0 0 0-.29.057.676.676 0 0 0-.197.265 15.152 15.152 0 0 1-.837 1.912C9.624 7.322 9.218 7.426 9.055 7.31c-.382-.27-.287-1.08-.287-1.652 0-1.8.253-2.546-.489-2.74a3.51 3.51 0 0 0-1.046-.114Z" fill="#fff"/></g><defs><clipPath id="a"><path fill="#fff" d="M0 0h15v15H0z"/></clipPath></defs></svg>