<svg width="22" height="22" fill="none" xmlns="http://www.w3.org/2000/svg"><g clip-path="url(#a)"><path fill-rule="evenodd" clip-rule="evenodd" d="M11.001.002A10.998 10.998 0 1 0 21.947 11 10.985 10.985 0 0 0 11.001.002Zm0 20.838A9.84 9.84 0 1 1 20.794 11a9.828 9.828 0 0 1-9.793 9.84Zm0-15.972a.578.578 0 0 0 .576-.58V2.56a.575.575 0 1 0-1.152 0v1.728a.576.576 0 0 0 .576.58Zm-.291 6.63.025.014a.55.55 0 0 0 .116.046c.006 0 .011.003.018.004.043.01.087.016.131.017a.582.582 0 0 0 .129-.016l.012-.002c.04-.01.08-.025.116-.044l.02-.01.022-.01 6.094-3.688a.58.58 0 0 0-.158-1.058.574.574 0 0 0-.436.066l-5.782 3.498-4.74-3.183a.578.578 0 0 0-.639.964l5.043 3.386.029.015Zm-6.387-1.076h-1.72a.578.578 0 0 0 0 1.157h1.72a.58.58 0 0 0 0-1.158ZM11 17.131a.577.577 0 0 0-.576.579v1.727a.577.577 0 1 0 1.152 0v-1.727a.579.579 0 0 0-.576-.579Zm8.398-6.71H17.68a.578.578 0 0 0 0 1.157h1.72a.58.58 0 0 0 0-1.158Z" fill="#FF5F1E"/></g><defs><clipPath id="a"><path fill="#fff" d="M0 0h22v22H0z"/></clipPath></defs></svg>