<svg width="21" height="12" fill="none" xmlns="http://www.w3.org/2000/svg"><path fill-rule="evenodd" clip-rule="evenodd" d="M10.688 11.61h1.192c.203-.024.394-.107.548-.24a.889.889 0 0 0 .164-.527s-.024-1.606.72-1.843c.736-.233 1.676 1.553 2.676 2.24.375.299.85.444 1.328.406l2.672-.037s1.396-.087.736-1.187c-.056-.09-.388-.814-1.988-2.301-1.676-1.557-1.448-1.305.568-4 1.228-1.64 1.72-2.64 1.568-3.07C20.724.642 19.82.75 19.82.75l-3.008.019a.68.68 0 0 0-.388.068.849.849 0 0 0-.264.323 17.38 17.38 0 0 1-1.112 2.349c-1.34 2.277-1.876 2.398-2.092 2.256-.512-.33-.384-1.324-.384-2.03 0-2.208.336-3.128-.652-3.366a5.107 5.107 0 0 0-1.404-.14c-1.072-.01-1.98.003-2.492.256-.344.168-.608.542-.448.563.342.03.66.19.888.447.208.423.311.891.3 1.363 0 0 .176 2.6-.416 2.92-.404.221-.96-.23-2.156-2.297A19.008 19.008 0 0 1 5.12 1.253a.882.882 0 0 0-.248-.336 1.24 1.24 0 0 0-.464-.186L1.552.749a.98.98 0 0 0-.588.2.621.621 0 0 0-.008.51s2.236 5.242 4.768 7.884c2.324 2.423 4.964 2.264 4.964 2.264v.002Z" fill="#fff"/></svg>