<svg width="20" height="20" fill="none" xmlns="http://www.w3.org/2000/svg"><path fill-rule="evenodd" clip-rule="evenodd" d="M10.264 19.436a9.571 9.571 0 0 1-4.704-1.23L.1 19.967l1.81-5.376a9.631 9.631 0 1 1 8.354 4.846Zm0-17.727A8.076 8.076 0 0 0 2.85 12.932c.23.49.493.964.79 1.417l-1.076 3.235 3.24-1.057c.416.267.855.494 1.312.68A8.067 8.067 0 1 0 10.264 1.71Zm-.298 11.56a8.862 8.862 0 0 1-1.606-1.21h-.004a.004.004 0 0 1-.002-.004H8.35v-.005a8.822 8.822 0 0 1-1.41-1.44c-2.19-2.662-1.175-4.342-.884-4.674.334-.386 1.423-.52 1.445-.327.023.193 1.139 2.252 1.16 2.44.021.188-.588.891-.766 1.096-.179.205 1.4 1.767 1.426 1.793.033.026 1.789 1.386 1.965 1.186.175-.2.787-.901.977-.906.19-.005 2.379.835 2.57.83.19-.006.205 1.094-.134 1.482-.286.334-1.813 1.568-4.733-.259v-.002Z" fill="#fff"/></svg>