<svg width="662" height="155" fill="none" xmlns="http://www.w3.org/2000/svg"><path d="M462.499 109V84.7h12.06v4.08h-6.69v6.18h1.14c1.54 0 2.84.25 3.9.75 1.08.5 1.9 1.27 2.46 2.31.56 1.02.84 2.34.84 3.96 0 1.48-.2 2.68-.6 3.6-.38.92-.92 1.63-1.62 2.13-.7.5-1.52.84-2.46 1.02-.92.18-1.92.27-3 .27h-6.03Zm5.37-3.51h.69c.68 0 1.22-.13 1.62-.39.4-.26.68-.66.84-1.2.16-.54.23-1.22.21-2.04-.02-.9-.21-1.65-.57-2.25-.36-.62-1.08-.93-2.16-.93h-.63v6.81Zm11.152 3.51V84.7h10.92v3.66h-5.55v6.03h4.23v3.72h-4.23v7.26h5.61V109h-10.98Zm19.598.45c-1.7 0-3.04-.32-4.02-.96-.96-.64-1.65-1.53-2.07-2.67-.4-1.16-.6-2.49-.6-3.99v-.87h5.04V101.89c0 1.2.12 2.06.36 2.58.24.5.7.75 1.38.75.46 0 .8-.12 1.02-.36.24-.24.4-.59.48-1.05.1-.48.15-1.08.15-1.8 0-1.22-.18-2.14-.54-2.76-.36-.64-1.11-.97-2.25-.99-.02-.02-.11-.03-.27-.03h-1.08v-3.27h1.23c1.18-.02 1.96-.34 2.34-.96.38-.62.57-1.54.57-2.76 0-.94-.15-1.66-.45-2.16-.28-.5-.76-.75-1.44-.75-.66 0-1.12.27-1.38.81-.24.52-.37 1.22-.39 2.1v1.35h-5.04v-1.47c0-1.46.28-2.69.84-3.69a5.683 5.683 0 0 1 2.4-2.31c1.02-.52 2.22-.78 3.6-.78 1.42 0 2.63.25 3.63.75 1.02.5 1.8 1.24 2.34 2.22.54.96.81 2.16.81 3.6 0 1.42-.29 2.62-.87 3.6-.58.96-1.28 1.55-2.1 1.77.56.22 1.06.55 1.5.99.46.42.82 1 1.08 1.74.26.74.39 1.69.39 2.85 0 1.48-.22 2.8-.66 3.96-.42 1.14-1.12 2.03-2.1 2.67-.98.64-2.28.96-3.9.96Zm9.401 4.32v-3.54c.86.02 1.61-.02 2.25-.12.64-.1 1.16-.29 1.56-.57.4-.28.66-.66.78-1.14.14-.5.12-1.12-.06-1.86l-5.46-21.84h4.98l2.1 9.99.99 6.51.72-6.54 1.77-9.96h5.04l-5.04 22.65c-.24 1.1-.52 2.03-.84 2.79-.32.76-.72 1.38-1.2 1.86-.46.5-1.03.88-1.71 1.14-.68.26-1.51.43-2.49.51-.96.1-2.09.14-3.39.12Zm16.821-4.77V84.7h14.55V109h-5.28V88.54h-3.99V109h-5.28Zm18.164 0V84.7h8.16c1.46 0 2.66.28 3.6.84.94.54 1.64 1.34 2.1 2.4.46 1.04.69 2.31.69 3.81 0 1.88-.31 3.32-.93 4.32-.62.98-1.46 1.66-2.52 2.04-1.06.38-2.25.57-3.57.57h-2.16V109h-5.37Zm5.37-14.07h1.8c.66 0 1.16-.12 1.5-.36.34-.24.56-.6.66-1.08.12-.48.18-1.09.18-1.83 0-.62-.05-1.16-.15-1.62-.08-.48-.29-.86-.63-1.14-.34-.28-.87-.42-1.59-.42h-1.77v6.45ZM560.144 109V84.7h10.92v3.66h-5.55v6.03h4.23v3.72h-4.23v7.26h5.61V109h-10.98Zm22.628 0v-9.99c-1 .14-1.98.21-2.94.21-1.16 0-2.26-.22-3.3-.66a6.24 6.24 0 0 1-2.49-1.98c-.64-.88-.96-1.95-.96-3.21V84.7h5.37v8.64c0 .5.05.95.15 1.35.12.38.38.68.78.9.42.22 1.07.33 1.95.33.22 0 .45-.01.69-.03.24-.02.49-.05.75-.09V84.7h5.37V109h-5.37Zm9.161 0V84.7h5.37v9.84h3.75V84.7h5.4V109h-5.4V98.38h-3.75V109h-5.37Zm25.18.36c-1.82 0-3.26-.32-4.32-.96-1.06-.64-1.82-1.56-2.28-2.76-.46-1.2-.69-2.63-.69-4.29v-9.03c0-1.68.23-3.11.69-4.29.46-1.18 1.22-2.08 2.28-2.7 1.06-.64 2.5-.96 4.32-.96 1.84 0 3.29.32 4.35.96 1.08.62 1.85 1.52 2.31 2.7.46 1.18.69 2.61.69 4.29v9.03c0 1.66-.23 3.09-.69 4.29-.46 1.2-1.23 2.12-2.31 2.76-1.06.64-2.51.96-4.35.96Zm0-3.81c.56 0 .97-.14 1.23-.42.26-.28.43-.64.51-1.08.08-.44.12-.89.12-1.35V91c0-.48-.04-.93-.12-1.35-.08-.44-.25-.8-.51-1.08s-.67-.42-1.23-.42c-.52 0-.91.14-1.17.42-.26.28-.43.64-.51 1.08-.08.42-.12.87-.12 1.35v11.7c0 .46.03.91.09 1.35.08.44.24.8.48 1.08.26.28.67.42 1.23.42Zm10.708 3.45V84.7h4.23v13.92l6.21-13.92h3.48V109h-4.32V94.84l-6.33 14.16h-3.27Zm7.35-26.25c-1.42 0-2.56-.4-3.42-1.2-.86-.8-1.29-1.96-1.29-3.48h2.76c0 .74.14 1.29.42 1.65.3.36.81.54 1.53.54.7 0 1.2-.18 1.5-.54.3-.38.45-.93.45-1.65h2.76c0 1.52-.43 2.68-1.29 3.48-.86.8-2 1.2-3.42 1.2ZM478.332 149v-24.3h8.16c1.46 0 2.66.28 3.6.84.94.54 1.64 1.34 2.1 2.4.46 1.04.69 2.31.69 3.81 0 1.88-.31 3.32-.93 4.32-.62.98-1.46 1.66-2.52 2.04-1.06.38-2.25.57-3.57.57h-2.16V149h-5.37Zm5.37-14.07h1.8c.66 0 1.16-.12 1.5-.36.34-.24.56-.6.66-1.08.12-.48.18-1.09.18-1.83 0-.62-.05-1.16-.15-1.62-.08-.48-.29-.86-.63-1.14-.34-.28-.87-.42-1.59-.42h-1.77v6.45ZM495.471 149v-24.3h10.92v3.66h-5.55v6.03h4.23v3.72h-4.23v7.26h5.61V149h-10.98Zm13.418 0v-24.3h14.55V149h-5.28v-20.46h-3.99V149h-5.28Zm17.954 4.77v-3.54c.86.02 1.61-.02 2.25-.12.64-.1 1.16-.29 1.56-.57.4-.28.66-.66.78-1.14.14-.5.12-1.12-.06-1.86l-5.46-21.84h4.98l2.1 9.99.99 6.51.72-6.54 1.77-9.96h5.04l-5.04 22.65c-.24 1.1-.52 2.03-.84 2.79-.32.76-.72 1.38-1.2 1.86-.46.5-1.03.88-1.71 1.14-.68.26-1.51.43-2.49.51-.96.1-2.09.14-3.39.12Zm19.011-4.77v-20.31h-3.66v-3.99h12.69v3.99h-3.63V149h-5.4Zm9.999 0 4.59-24.3h6.12l4.53 24.3h-4.95l-.81-5.13h-3.57l-.84 5.13h-5.07Zm6.39-8.34h2.58l-1.29-9.48-1.29 9.48Zm25.584 13.59-.69-5.25h-13.5v-24.3h5.37v20.67h4.08V124.7h5.37v20.67h3.3v8.88h-3.93Zm6.376-5.25v-24.3h4.23v13.92l6.21-13.92h3.48V149h-4.32v-14.16l-6.33 14.16h-3.27Zm17.696 0v-24.3h4.23v13.92l6.21-13.92h3.48V149h-4.32v-14.16l-6.33 14.16h-3.27Z" fill="#292929"/><path d="M96.85 143v-17.7l29.1-44.7c2.2-3.3 4.25-6.5 6.15-9.6 2-3.1 3.6-6.25 4.8-9.45 1.3-3.2 1.95-6.55 1.95-10.05 0-3.5-.7-6.1-2.1-7.8-1.4-1.7-3.3-2.55-5.7-2.55-2.7 0-4.8.75-6.3 2.25s-2.55 3.5-3.15 6c-.5 2.5-.75 5.3-.75 8.4v6h-24.3v-6.45c0-7.2 1.15-13.6 3.45-19.2 2.3-5.7 5.95-10.15 10.95-13.35 5-3.3 11.55-4.95 19.65-4.95 10.9 0 19.1 2.85 24.6 8.55 5.6 5.6 8.4 13.45 8.4 23.55 0 4.9-.8 9.45-2.4 13.65-1.5 4.2-3.55 8.3-6.15 12.3-2.5 3.9-5.2 8-8.1 12.3l-22.2 33.15h35.55V143H96.85Zm109.151 2.25c-8.9 0-15.65-1.55-20.25-4.65-4.5-3.2-7.55-7.65-9.15-13.35-1.6-5.7-2.4-12.3-2.4-19.8h24.15c0 4.6.25 8.35.75 11.25.5 2.9 1.4 5 2.7 6.3 1.4 1.2 3.35 1.75 5.85 1.65 2.6-.1 4.45-1.15 5.55-3.15 1.1-2 1.75-4.85 1.95-8.55.3-3.8.45-8.35.45-13.65 0-4-.25-7.55-.75-10.65-.4-3.1-1.3-5.55-2.7-7.35-1.3-1.9-3.3-2.85-6-2.85-2.5 0-4.55.9-6.15 2.7-1.6 1.8-2.75 4.6-3.45 8.4h-21.6l2.25-70.05h56.7v21h-36.6l-1.35 25.05c1-1.4 2.9-2.6 5.7-3.6 2.8-1.1 5.8-1.8 9-2.1 6.2-.7 11.4.45 15.6 3.45 4.3 2.9 7.5 7.35 9.6 13.35 2.2 6 3.3 13.35 3.3 22.05 0 6.5-.4 12.5-1.2 18-.8 5.4-2.35 10.1-4.65 14.1-2.3 3.9-5.65 6.95-10.05 9.15s-10.15 3.3-17.25 3.3Zm39.118-2.25v-18.9c3.4 0 6.15-.2 8.25-.6 2.1-.5 3.75-1.6 4.95-3.3 1.2-1.7 2.15-4.3 2.85-7.8.7-3.5 1.25-8.2 1.65-14.1.5-5.9 1.1-13.4 1.8-22.5l3.9-54.3h64.35V143h-26.7V42.05h-13.35l-2.4 38.85c-.7 10-1.4 18.65-2.1 25.95-.7 7.2-1.85 13.25-3.45 18.15-1.5 4.9-3.8 8.75-6.9 11.55-3 2.7-7.15 4.55-12.45 5.55-5.3 1-12.1 1.3-20.4.9Zm106.388 0V21.5h54.6v18.3h-27.75v30.15h21.15v18.6h-21.15v36.3h28.05V143h-54.9Zm78.039 0V41.45h-18.3V21.5h63.45v19.95h-18.15V143h-27Z" fill="#FF5F1E"/><path d="M1.89 89V64.7h12.06v4.08H7.26v6.18H8.4c1.54 0 2.84.25 3.9.75 1.08.5 1.9 1.27 2.46 2.31.56 1.02.84 2.34.84 3.96 0 1.48-.2 2.68-.6 3.6-.38.92-.92 1.63-1.62 2.13-.7.5-1.52.84-2.46 1.02-.92.18-1.92.27-3 .27H1.89Zm5.37-3.51h.69c.68 0 1.22-.13 1.62-.39.4-.26.68-.66.84-1.2.16-.54.23-1.22.21-2.04-.02-.9-.21-1.65-.57-2.25-.36-.62-1.08-.93-2.16-.93h-.63v6.81Zm18.111 3.87c-1.82 0-3.26-.32-4.32-.96-1.06-.64-1.82-1.56-2.28-2.76-.46-1.2-.69-2.63-.69-4.29v-9.03c0-1.68.23-3.11.69-4.29.46-1.18 1.22-2.08 2.28-2.7 1.06-.64 2.5-.96 4.32-.96 1.84 0 3.29.32 4.35.96 1.08.62 1.85 1.52 2.31 2.7.46 1.18.69 2.61.69 4.29v9.03c0 1.66-.23 3.09-.69 4.29-.46 1.2-1.23 2.12-2.31 2.76-1.06.64-2.51.96-4.35.96Zm0-3.81c.56 0 .97-.14 1.23-.42.26-.28.43-.64.51-1.08.08-.44.12-.89.12-1.35V71c0-.48-.04-.93-.12-1.35-.08-.44-.25-.8-.51-1.08s-.67-.42-1.23-.42c-.52 0-.91.14-1.17.42-.26.28-.43.64-.51 1.08-.08.42-.12.87-.12 1.35v11.7c0 .46.03.91.09 1.35.08.44.24.8.48 1.08.26.28.67.42 1.23.42ZM34.4 89v-3.78c.68 0 1.23-.04 1.65-.12.42-.1.75-.32.99-.66s.43-.86.57-1.56c.14-.7.25-1.64.33-2.82.1-1.18.22-2.68.36-4.5l.78-10.86h12.87V89h-5.34V68.81h-2.67l-.48 7.77c-.14 2-.28 3.73-.42 5.19-.14 1.44-.37 2.65-.69 3.63-.3.98-.76 1.75-1.38 2.31-.6.54-1.43.91-2.49 1.11-1.06.2-2.42.26-4.08.18Zm21.277 0V64.7h10.92v3.66h-5.55v6.03h4.23v3.72h-4.23v7.26h5.61V89h-10.98Zm13.418 0V64.7h10.92v3.66h-5.55v6.03h4.23v3.72h-4.23v7.26h5.61V89h-10.98Z" fill="#fff"/></svg>