<svg xmlns="http://www.w3.org/2000/svg" width="46" height="46" fill="none"><g clip-path="url(#a)"><path fill="#FAFAFA" fill-rule="evenodd" d="M22.332 6.33C18.75 18.613 12.858 33.231 8.887 40.304a1.622 1.622 0 0 1-1.223.808l-5.312.665a1.64 1.64 0 0 1-1.765-2.144c3-9.075 6.502-22.805 8.167-33.005a1.632 1.632 0 0 1 1.455-1.367l10.383-1.04a1.647 1.647 0 0 1 1.74 2.109Zm23.1 0C41.85 18.613 35.96 33.231 31.986 40.304a1.621 1.621 0 0 1-1.222.808l-5.279.661a1.64 1.64 0 0 1-1.76-2.16c3.093-9.075 6.474-22.792 8.129-32.984a1.632 1.632 0 0 1 1.455-1.368l10.382-1.04a1.648 1.648 0 0 1 1.741 2.109Z" clip-rule="evenodd"/></g><defs><clipPath id="a"><path fill="#fff" d="M.5.5h45v45H.5z"/></clipPath></defs></svg>