<svg width="219" height="191" fill="none" xmlns="http://www.w3.org/2000/svg"><path d="M3.922 50V7.07h16.536v2.226H6.837v15.9h4.717c2.65 0 4.823.477 6.519 1.431 1.696.919 2.95 2.314 3.763 4.187.813 1.873 1.219 4.222 1.219 7.049 0 1.767-.212 3.392-.636 4.876-.389 1.484-1.042 2.774-1.961 3.869-.883 1.06-2.05 1.89-3.498 2.491-1.449.6-3.215.901-5.3.901H3.922Zm2.915-2.332h4.876c2.085 0 3.728-.371 4.929-1.113 1.237-.777 2.12-1.89 2.65-3.339.53-1.484.795-3.286.795-5.406 0-3.215-.618-5.724-1.855-7.526-1.201-1.837-3.374-2.756-6.519-2.756H6.837v20.14Zm31.732 2.915c-2.79 0-4.964-.548-6.519-1.643-1.519-1.13-2.579-2.65-3.18-4.558-.6-1.943-.9-4.134-.9-6.572V19.048c0-2.438.318-4.593.954-6.466.636-1.873 1.713-3.339 3.233-4.399 1.554-1.06 3.692-1.59 6.413-1.59 2.72 0 4.84.53 6.36 1.59 1.554 1.06 2.65 2.526 3.285 4.399.636 1.873.954 4.028.954 6.466v18.815c0 2.438-.3 4.611-.9 6.519-.601 1.908-1.679 3.427-3.233 4.558-1.52 1.095-3.675 1.643-6.467 1.643Zm0-2.385c2.05 0 3.622-.406 4.717-1.219 1.131-.813 1.908-1.943 2.332-3.392.424-1.484.636-3.198.636-5.141V18.624c0-1.943-.212-3.64-.636-5.088-.424-1.449-1.183-2.562-2.279-3.339-1.095-.813-2.685-1.219-4.77-1.219-2.049 0-3.639.406-4.77 1.219-1.095.777-1.854 1.89-2.279 3.339-.424 1.449-.636 3.145-.636 5.088v19.822c0 1.943.212 3.657.636 5.141.425 1.449 1.184 2.58 2.28 3.392 1.13.813 2.72 1.219 4.77 1.219Zm14.98 1.908v-2.279c1.13-.07 2.067-.212 2.809-.424s1.342-.707 1.802-1.484c.459-.777.848-2.032 1.166-3.763.318-1.731.618-4.134.9-7.208.319-3.074.672-7.031 1.06-11.872L62.454 7.07h15.37V50h-2.915V9.296h-9.752l-1.06 13.78a720.58 720.58 0 0 1-1.06 12.137c-.318 3.215-.69 5.812-1.113 7.791-.389 1.979-.919 3.48-1.59 4.505-.636.99-1.502 1.66-2.597 2.014-1.096.353-2.491.548-4.187.583ZM85.648 50V7.07h14.84v2.332H88.563v17.225h9.805v2.226h-9.805v18.868h12.084V50h-15Zm20.806 0V7.07h14.84v2.332h-11.925v17.225h9.805v2.226h-9.805v18.868h12.084V50h-14.999Zm46.801 0V30.072c-2.226.636-4.328.954-6.307.954-2.226 0-4.152-.3-5.777-.901-1.59-.636-2.827-1.625-3.71-2.968-.883-1.378-1.325-3.18-1.325-5.406V7.07h2.915v14.681c0 1.943.371 3.427 1.113 4.452s1.731 1.731 2.968 2.12c1.272.389 2.685.583 4.24.583 1.131 0 2.191-.088 3.18-.265a19.527 19.527 0 0 0 2.703-.742V7.07h2.915V50h-2.915Zm10.806 0V7.07h14.84v2.332h-11.925v17.225h9.805v2.226h-9.805v18.868h12.084V50h-14.999Zm20.329 0 1.272-42.93h2.862l9.063 38.743 9.222-38.743h2.968L210.996 50h-2.491l-1.06-35.987L198.7 50h-2.12l-8.639-35.934L186.881 50h-2.491ZM25.729 158.5c-5.933 0-10.433-1.033-13.5-3.1-3-2.133-5.034-5.1-6.1-8.9-1.067-3.8-1.6-8.2-1.6-13.2h16.1c0 3.067.166 5.567.5 7.5.333 1.933.933 3.333 1.8 4.2.933.8 2.233 1.167 3.9 1.1 1.733-.067 2.966-.767 3.7-2.1.733-1.333 1.166-3.233 1.3-5.7.2-2.533.3-5.567.3-9.1 0-2.667-.167-5.033-.5-7.1-.267-2.067-.867-3.7-1.8-4.9-.867-1.267-2.2-1.9-4-1.9-1.667 0-3.034.6-4.1 1.8-1.067 1.2-1.834 3.067-2.3 5.6h-14.4l1.5-46.7h37.8v14h-24.4l-.9 16.7c.666-.933 1.933-1.733 3.8-2.4 1.866-.733 3.866-1.2 6-1.4 4.133-.467 7.6.3 10.4 2.3 2.867 1.933 5 4.9 6.4 8.9 1.467 4 2.2 8.9 2.2 14.7 0 4.333-.267 8.333-.8 12-.534 3.6-1.567 6.733-3.1 9.4-1.534 2.6-3.767 4.633-6.7 6.1-2.934 1.467-6.767 2.2-11.5 2.2Zm52.879 0c-4.867 0-8.934-.967-12.2-2.9-3.267-2-5.734-4.733-7.4-8.2-1.667-3.467-2.5-7.5-2.5-12.1V98.6c0-4.733.766-8.867 2.3-12.4 1.6-3.6 4.033-6.4 7.3-8.4 3.266-2 7.433-3 12.5-3 5.066 0 9.2 1 12.4 3 3.266 2 5.666 4.8 7.2 8.4 1.6 3.533 2.4 7.667 2.4 12.4v36.7c0 4.533-.834 8.567-2.5 12.1-1.667 3.467-4.134 6.2-7.4 8.2-3.267 1.933-7.3 2.9-12.1 2.9Zm0-14.9c1.6 0 2.733-.5 3.4-1.5a7.581 7.581 0 0 0 1.3-3.6c.2-1.4.3-2.6.3-3.6V99c0-1.133-.067-2.4-.2-3.8-.134-1.467-.567-2.733-1.3-3.8-.667-1.133-1.834-1.7-3.5-1.7-1.667 0-2.867.567-3.6 1.7-.667 1.067-1.067 2.333-1.2 3.8-.134 1.4-.2 2.667-.2 3.8v35.9c0 1 .1 2.2.3 3.6.2 1.333.633 2.533 1.3 3.6.733 1 1.866 1.5 3.4 1.5Zm54.98 14.9c-4.867 0-8.933-.967-12.2-2.9-3.267-2-5.733-4.733-7.4-8.2-1.667-3.467-2.5-7.5-2.5-12.1V98.6c0-4.733.767-8.867 2.3-12.4 1.6-3.6 4.033-6.4 7.3-8.4 3.267-2 7.433-3 12.5-3s9.2 1 12.4 3c3.267 2 5.667 4.8 7.2 8.4 1.6 3.533 2.4 7.667 2.4 12.4v36.7c0 4.533-.833 8.567-2.5 12.1-1.666 3.467-4.133 6.2-7.4 8.2-3.267 1.933-7.3 2.9-12.1 2.9Zm0-14.9c1.6 0 2.734-.5 3.4-1.5a7.57 7.57 0 0 0 1.3-3.6c.2-1.4.3-2.6.3-3.6V99c0-1.133-.066-2.4-.2-3.8-.133-1.467-.567-2.733-1.3-3.8-.667-1.133-1.833-1.7-3.5-1.7s-2.867.567-3.6 1.7c-.666 1.067-1.066 2.333-1.2 3.8-.133 1.4-.2 2.667-.2 3.8v35.9c0 1 .1 2.2.3 3.6.2 1.333.633 2.533 1.3 3.6.733 1 1.867 1.5 3.4 1.5Zm54.981 14.9c-4.867 0-8.934-.967-12.2-2.9-3.267-2-5.734-4.733-7.4-8.2-1.667-3.467-2.5-7.5-2.5-12.1V98.6c0-4.733.766-8.867 2.3-12.4 1.6-3.6 4.033-6.4 7.3-8.4 3.266-2 7.433-3 12.5-3 5.066 0 9.2 1 12.4 3 3.266 2 5.666 4.8 7.2 8.4 1.6 3.533 2.4 7.667 2.4 12.4v36.7c0 4.533-.834 8.567-2.5 12.1-1.667 3.467-4.134 6.2-7.4 8.2-3.267 1.933-7.3 2.9-12.1 2.9Zm0-14.9c1.6 0 2.733-.5 3.4-1.5a7.592 7.592 0 0 0 1.3-3.6c.2-1.4.3-2.6.3-3.6V99c0-1.133-.067-2.4-.2-3.8-.134-1.467-.567-2.733-1.3-3.8-.667-1.133-1.834-1.7-3.5-1.7-1.667 0-2.867.567-3.6 1.7-.667 1.067-1.067 2.333-1.2 3.8-.134 1.4-.2 2.667-.2 3.8v35.9c0 1 .1 2.2.3 3.6.2 1.333.633 2.533 1.3 3.6.733 1 1.866 1.5 3.4 1.5ZM1.2 190v-16.2h9.7V190H7.38v-13.64H4.72V190H1.2Zm12.11 0v-16.2h5.44c.973 0 1.773.187 2.4.56.626.36 1.093.893 1.4 1.6.306.693.46 1.54.46 2.54 0 1.253-.207 2.213-.62 2.88a3.236 3.236 0 0 1-1.68 1.36c-.707.253-1.5.38-2.38.38h-1.44V190h-3.58Zm3.58-9.38h1.2c.44 0 .773-.08 1-.24.226-.16.373-.4.44-.72.08-.32.12-.727.12-1.22 0-.413-.034-.773-.1-1.08a1.204 1.204 0 0 0-.42-.76c-.227-.187-.58-.28-1.06-.28h-1.18v4.3Zm12.485 9.62c-1.213 0-2.173-.213-2.88-.64-.707-.427-1.213-1.04-1.52-1.84-.306-.8-.46-1.753-.46-2.86v-6.02c0-1.12.154-2.073.46-2.86a3.485 3.485 0 0 1 1.52-1.8c.707-.427 1.667-.64 2.88-.64 1.227 0 2.194.213 2.9.64a3.462 3.462 0 0 1 1.54 1.8c.307.787.46 1.74.46 2.86v6.02c0 1.107-.153 2.06-.46 2.86-.306.8-.82 1.413-1.54 1.84-.706.427-1.673.64-2.9.64Zm0-2.54c.373 0 .647-.093.82-.28.174-.187.287-.427.34-.72.053-.293.08-.593.08-.9V178c0-.32-.026-.62-.08-.9a1.402 1.402 0 0 0-.34-.72c-.173-.187-.447-.28-.82-.28-.346 0-.607.093-.78.28a1.4 1.4 0 0 0-.34.72c-.053.28-.08.58-.08.9v7.8c0 .307.02.607.06.9.053.293.16.533.32.72.174.187.447.28.82.28Zm7.079 2.3v-16.2h7.28v2.44h-3.7v4.02h2.82v2.48h-2.82v4.84h3.74V190h-7.32Zm9.005 0v-16.2h3.58v6.42h.36l2.38-6.42h3.56l-2.96 7.6 3.06 8.6h-3.68l-2.36-7.06h-.36V190h-3.58Zm12.845 0v-13.54h-2.44v-2.66h8.46v2.66h-2.42V190h-3.6Zm12.087.24c-1.214 0-2.174-.213-2.88-.64-.707-.427-1.214-1.04-1.52-1.84-.307-.8-.46-1.753-.46-2.86v-6.02c0-1.12.153-2.073.46-2.86a3.485 3.485 0 0 1 1.52-1.8c.706-.427 1.666-.64 2.88-.64 1.226 0 2.193.213 2.9.64a3.462 3.462 0 0 1 1.54 1.8c.306.787.46 1.74.46 2.86v6.02c0 1.107-.154 2.06-.46 2.86-.307.8-.82 1.413-1.54 1.84-.707.427-1.674.64-2.9.64Zm0-2.54c.373 0 .646-.093.82-.28.173-.187.286-.427.34-.72.053-.293.08-.593.08-.9V178c0-.32-.027-.62-.08-.9a1.402 1.402 0 0 0-.34-.72c-.174-.187-.447-.28-.82-.28-.347 0-.607.093-.78.28a1.4 1.4 0 0 0-.34.72c-.054.28-.08.58-.08.9v7.8c0 .307.02.607.06.9.053.293.16.533.32.72.173.187.446.28.82.28Zm7.078 2.3v-16.2h4.22c.694 0 1.347.053 1.96.16.627.107 1.18.313 1.66.62.48.293.854.72 1.12 1.28.28.547.42 1.273.42 2.18 0 .653-.1 1.207-.3 1.66-.186.44-.46.793-.82 1.06a2.914 2.914 0 0 1-1.26.54c.627.08 1.154.287 1.58.62.427.32.747.753.96 1.3.227.547.34 1.207.34 1.98 0 .84-.113 1.567-.34 2.18-.213.6-.526 1.093-.94 1.48-.413.387-.926.673-1.54.86-.6.187-1.293.28-2.08.28h-4.98Zm3.58-2.5h.76c.787 0 1.327-.2 1.62-.6.307-.4.46-.987.46-1.76 0-.613-.066-1.1-.2-1.46-.133-.36-.353-.62-.66-.78-.306-.173-.72-.26-1.24-.26h-.74v4.86Zm0-7.22h.7c.547 0 .96-.08 1.24-.24.28-.173.467-.42.56-.74.107-.32.16-.707.16-1.16 0-.427-.08-.78-.24-1.06a1.424 1.424 0 0 0-.68-.66c-.293-.147-.666-.22-1.12-.22h-.62v4.08ZM94.344 190v-16.2h4.22c.694 0 1.347.053 1.961.16a4.43 4.43 0 0 1 1.66.62c.48.293.853.72 1.12 1.28.28.547.42 1.273.42 2.18 0 .653-.1 1.207-.3 1.66-.187.44-.46.793-.82 1.06a2.918 2.918 0 0 1-1.26.54c.626.08 1.153.287 1.58.62.426.32.746.753.96 1.3.226.547.34 1.207.34 1.98 0 .84-.114 1.567-.34 2.18-.214.6-.527 1.093-.94 1.48-.414.387-.927.673-1.54.86-.6.187-1.294.28-2.08.28h-4.98Zm3.58-2.5h.76c.787 0 1.327-.2 1.621-.6.306-.4.46-.987.46-1.76 0-.613-.067-1.1-.2-1.46-.134-.36-.354-.62-.66-.78-.307-.173-.72-.26-1.24-.26h-.74v4.86Zm0-7.22h.7c.547 0 .96-.08 1.24-.24.281-.173.467-.42.561-.74.106-.32.16-.707.16-1.16 0-.427-.08-.78-.24-1.06a1.427 1.427 0 0 0-.68-.66c-.294-.147-.667-.22-1.12-.22h-.62v4.08ZM111.22 190v-16.2h9.7V190h-3.52v-13.64h-2.66V190h-3.52Zm16.749.24c-1.213 0-2.173-.213-2.88-.64-.707-.427-1.213-1.04-1.52-1.84-.307-.8-.46-1.753-.46-2.86v-6.02c0-1.12.153-2.073.46-2.86.307-.787.813-1.387 1.52-1.8.707-.427 1.667-.64 2.88-.64 1.227 0 2.193.213 2.9.64a3.463 3.463 0 0 1 1.54 1.8c.307.787.46 1.74.46 2.86v6.02c0 1.107-.153 2.06-.46 2.86-.307.8-.82 1.413-1.54 1.84-.707.427-1.673.64-2.9.64Zm0-2.54c.373 0 .647-.093.82-.28a1.4 1.4 0 0 0 .34-.72c.053-.293.08-.593.08-.9V178c0-.32-.027-.62-.08-.9a1.4 1.4 0 0 0-.34-.72c-.173-.187-.447-.28-.82-.28-.347 0-.607.093-.78.28a1.4 1.4 0 0 0-.34.72c-.053.28-.08.58-.08.9v7.8c0 .307.02.607.06.9.053.293.16.533.32.72.173.187.447.28.82.28Zm7.079 2.3v-16.2h5.44c.973 0 1.773.187 2.4.56.626.36 1.093.893 1.4 1.6.306.693.46 1.54.46 2.54 0 1.253-.207 2.213-.62 2.88a3.241 3.241 0 0 1-1.68 1.36c-.707.253-1.5.38-2.38.38h-1.44V190h-3.58Zm3.58-9.38h1.2c.44 0 .773-.08 1-.24.226-.16.373-.4.44-.72.08-.32.12-.727.12-1.22 0-.413-.034-.773-.1-1.08a1.21 1.21 0 0 0-.42-.76c-.227-.187-.58-.28-1.06-.28h-1.18v4.3Zm9.305 9.38v-13.54h-2.44v-2.66h8.46v2.66h-2.42V190h-3.6Zm12.387.58v-2.42l-.62.04c-.2.013-.407.02-.62.02a4.446 4.446 0 0 1-2.02-.46 3.57 3.57 0 0 1-1.44-1.34c-.347-.6-.52-1.327-.52-2.18v-4.88c0-.773.18-1.46.54-2.06.373-.6.886-1.067 1.54-1.4.666-.347 1.426-.52 2.28-.52a5 5 0 0 1 .44.02c.16 0 .3.007.42.02v-2.56h2.88v2.56c.12-.013.246-.02.38-.02.133-.013.273-.02.42-.02.893 0 1.666.173 2.32.52.666.333 1.18.8 1.54 1.4.373.6.56 1.287.56 2.06v4.9c0 .853-.18 1.58-.54 2.18a3.475 3.475 0 0 1-1.4 1.34 4.006 4.006 0 0 1-1.92.46c-.227 0-.454-.007-.68-.02-.214-.013-.44-.027-.68-.04v2.4h-2.88Zm-.4-4.58h.22c.08-.013.14-.027.18-.04v-8.4a.974.974 0 0 0-.22-.02 1.613 1.613 0 0 0-1.08.2c-.24.147-.427.353-.56.62-.134.267-.2.587-.2.96v4.98c0 .32.053.607.16.86.106.253.28.46.52.62.24.147.566.22.98.22Zm3.7-.02c.386 0 .7-.067.94-.2.24-.147.413-.347.52-.6.12-.253.18-.547.18-.88v-4.98c0-.4-.06-.733-.18-1a1.282 1.282 0 0 0-.52-.6 1.45 1.45 0 0 0-.78-.2c-.107 0-.207.007-.3.02-.094 0-.187.007-.28.02v8.38l.2.04h.22Zm11.575 4.26c-1.213 0-2.173-.213-2.88-.64-.706-.427-1.213-1.04-1.52-1.84-.306-.8-.46-1.753-.46-2.86v-6.02c0-1.12.154-2.073.46-2.86a3.49 3.49 0 0 1 1.52-1.8c.707-.427 1.667-.64 2.88-.64 1.227 0 2.194.213 2.9.64a3.458 3.458 0 0 1 1.54 1.8c.307.787.46 1.74.46 2.86v6.02c0 1.107-.153 2.06-.46 2.86a3.55 3.55 0 0 1-1.54 1.84c-.706.427-1.673.64-2.9.64Zm0-2.54c.374 0 .647-.093.82-.28.174-.187.287-.427.34-.72.054-.293.08-.593.08-.9V178c0-.32-.026-.62-.08-.9a1.393 1.393 0 0 0-.34-.72c-.173-.187-.446-.28-.82-.28-.346 0-.606.093-.78.28a1.409 1.409 0 0 0-.34.72c-.053.28-.08.58-.08.9v7.8c0 .307.02.607.06.9.054.293.16.533.32.72.174.187.447.28.82.28Zm6.019 2.3v-2.52c.454 0 .82-.027 1.1-.08.28-.067.5-.213.66-.44.16-.227.287-.573.38-1.04.094-.467.167-1.093.22-1.88.067-.787.147-1.787.24-3l.52-7.24h8.58V190h-3.56v-13.46h-1.78l-.32 5.18a132.936 132.936 0 0 1-.28 3.46c-.093.96-.246 1.767-.46 2.42-.2.653-.506 1.167-.92 1.54-.4.36-.953.607-1.66.74-.706.133-1.613.173-2.72.12Zm14.245 0v-16.2h2.82v9.28l4.14-9.28h2.32V190h-2.88v-9.44l-4.22 9.44h-2.18Zm16.377.24c-1.213 0-2.173-.213-2.88-.64-.707-.427-1.213-1.04-1.52-1.84-.307-.8-.46-1.753-.46-2.86v-6.02c0-1.12.153-2.073.46-2.86.307-.787.813-1.387 1.52-1.8.707-.427 1.667-.64 2.88-.64 1.227 0 2.193.213 2.9.64a3.463 3.463 0 0 1 1.54 1.8c.307.787.46 1.74.46 2.86v6.02c0 1.107-.153 2.06-.46 2.86-.307.8-.82 1.413-1.54 1.84-.707.427-1.673.64-2.9.64Zm0-2.54c.373 0 .647-.093.82-.28a1.4 1.4 0 0 0 .34-.72c.053-.293.08-.593.08-.9V178c0-.32-.027-.62-.08-.9a1.4 1.4 0 0 0-.34-.72c-.173-.187-.447-.28-.82-.28-.347 0-.607.093-.78.28a1.4 1.4 0 0 0-.34.72c-.053.28-.08.58-.08.9v7.8c0 .307.02.607.06.9.053.293.16.533.32.72.173.187.447.28.82.28Z" fill="#FDFDFD"/></svg>